<?xml version="1.0" encoding="UTF-8" standalone="no"?>
<svg
   viewBox="0 0 222222.01 222222.01"
   shape-rendering="geometricPrecision"
   text-rendering="geometricPrecision"
   image-rendering="optimizeQuality"
   fill-rule="evenodd"
   clip-rule="evenodd"
   version="1.1"
   id="svg5578"
   sodipodi:docname="PlayStore.svg"
   inkscape:version="1.2.2 (732a01da63, 2022-12-09)"
   width="3333.3301"
   height="3333.3301"
   xmlns:inkscape="http://www.inkscape.org/namespaces/inkscape"
   xmlns:sodipodi="http://sodipodi.sourceforge.net/DTD/sodipodi-0.dtd"
   xmlns="http://www.w3.org/2000/svg"
   xmlns:svg="http://www.w3.org/2000/svg">
  <sodipodi:namedview
     id="namedview5580"
     pagecolor="#ffffff"
     bordercolor="#cccccc"
     borderopacity="1"
     inkscape:showpageshadow="0"
     inkscape:pageopacity="1"
     inkscape:pagecheckerboard="0"
     inkscape:deskcolor="#d1d1d1"
     showgrid="false"
     inkscape:zoom="0.22627417"
     inkscape:cx="1557.8446"
     inkscape:cy="1606.4582"
     inkscape:window-width="1920"
     inkscape:window-height="1001"
     inkscape:window-x="-9"
     inkscape:window-y="-9"
     inkscape:window-maximized="1"
     inkscape:current-layer="svg5578" />
  <defs
     id="defs5566">
    <linearGradient
       id="a"
       gradientUnits="userSpaceOnUse"
       x1="161434"
       y1="81394.5"
       x2="161434"
       y2="160649"
       gradientTransform="translate(-57708.333,-56113.156)">
      <stop
         offset="0"
         stop-color="#0ad778"
         id="stop5546" />
      <stop
         offset="1"
         stop-color="#01ef75"
         id="stop5548" />
    </linearGradient>
    <linearGradient
       id="c"
       gradientUnits="userSpaceOnUse"
       x1="157388"
       y1="171418"
       x2="157388"
       y2="242609"
       gradientTransform="translate(-57708.333,-56113.156)">
      <stop
         offset="0"
         stop-color="#fe3e4a"
         id="stop5551" />
      <stop
         offset="1"
         stop-color="#e31f50"
         id="stop5553" />
    </linearGradient>
    <linearGradient
       id="d"
       gradientUnits="userSpaceOnUse"
       x1="194461"
       y1="166716"
       x2="244828"
       y2="166716"
       gradientTransform="translate(-57708.333,-56113.156)">
      <stop
         offset="0"
         stop-color="#febe00"
         id="stop5556" />
      <stop
         offset="1"
         stop-color="#ffd900"
         id="stop5558" />
    </linearGradient>
    <linearGradient
       id="b"
       gradientUnits="userSpaceOnUse"
       x1="141807"
       y1="118463"
       x2="141807"
       y2="209850"
       gradientTransform="translate(-57708.333,-56113.156)">
      <stop
         offset="0"
         stop-color="#02c4ff"
         id="stop5561" />
      <stop
         offset="1"
         stop-color="#01e2ff"
         id="stop5563" />
    </linearGradient>
  </defs>
  <path
     d="m 52323.667,24682.844 c 154,-10 310,-17 467,-21 6696,-190 10194,2815 15681,6048 l 86657.003,50027 -27216,24606.996 z"
     fill="url(#a)"
     id="path5570"
     style="fill:url(#a)" />
  <path
     d="m 53028.667,24920.844 74878.003,80343.996 -83611.003,87396 c -536,-635 -1005,-1338 -1410,-2099 -2594,-4883 -1867,-12399 -1867,-17910 V 47615.844 c 0,-3690 -274,-8131 333,-11979 853,-5400 8596,-12211 11676,-10716 z"
     fill="url(#b)"
     id="path5572"
     style="fill:url(#b)" />
  <path
     d="m 155085.67,140471.84 -91554.003,53088 c -3021,1752 -4489,2488 -8117,2893 -753,84 -10443,-3762 -11140,-3769 l 83631.003,-87418 z"
     fill="url(#c)"
     id="path5574"
     style="fill:url(#c)" />
  <path
     d="m 155099.67,80718.844 26703,15418.997 c 3685,2128 6878,3689 9650,7090.999 4514,5542 3926,11894 -2579,17242 -2874,2363 -6755,4326 -10000,6207 l -23863,13808 -27107,-35222 z"
     fill="url(#d)"
     id="path5576"
     style="fill:url(#d)" />
</svg>
