<?xml version="1.0" encoding="UTF-8" standalone="no"?>
<svg
   viewBox="0 0 32 32"
   version="1.1"
   id="svg945"
   sodipodi:docname="SQLite.svg"
   inkscape:version="1.2.2 (732a01da63, 2022-12-09)"
   xmlns:inkscape="http://www.inkscape.org/namespaces/inkscape"
   xmlns:sodipodi="http://sodipodi.sourceforge.net/DTD/sodipodi-0.dtd"
   xmlns="http://www.w3.org/2000/svg"
   xmlns:svg="http://www.w3.org/2000/svg">
  <defs
     id="defs949" />
  <sodipodi:namedview
     id="namedview947"
     pagecolor="#ffffff"
     bordercolor="#cccccc"
     borderopacity="1"
     inkscape:showpageshadow="0"
     inkscape:pageopacity="1"
     inkscape:pagecheckerboard="0"
     inkscape:deskcolor="#d1d1d1"
     showgrid="false"
     inkscape:zoom="25.4375"
     inkscape:cx="16.019656"
     inkscape:cy="15.528256"
     inkscape:window-width="1920"
     inkscape:window-height="1001"
     inkscape:window-x="-9"
     inkscape:window-y="-9"
     inkscape:window-maximized="1"
     inkscape:current-layer="svg945" />
  <linearGradient
     id="a"
     gradientTransform="matrix(0,12.985631,12.569917,0,-561.98473,1539.1547)"
     gradientUnits="userSpaceOnUse"
     x1="-118.318"
     x2="-116.751"
     y1="45.638"
     y2="45.638">
    <stop
       offset="0"
       stop-color="#97d9f6"
       id="stop932" />
    <stop
       offset=".92"
       stop-color="#0f80cc"
       id="stop934" />
    <stop
       offset="1"
       stop-color="#0f80cc"
       id="stop936" />
  </linearGradient>
  <rect
     style="fill:#ffffff;fill-opacity:1;stroke:none;stroke-width:0.0903168;stroke-linecap:round;stroke-linejoin:round;stroke-dasharray:none;stroke-opacity:1"
     id="rect1068"
     width="18.532101"
     height="26.707579"
     x="12.483474"
     y="1.4982325"
     ry="3"
     rx="3" />
  <path
     d="M 22.496722,1.5172093 H 3.2697606 A 2.3496094,2.4273161 0 0 0 0.92671745,3.937742 V 25.843506 A 2.3496094,2.4273161 0 0 0 3.2697606,28.26404 H 15.933794 C 15.789336,21.754264 17.94196,9.121368 22.496722,1.5172093 Z"
     fill="#0f80cc"
     id="path939"
     style="stroke-width:1.11231" />
  <path
     d="M 21.798515,2.2238104 H 3.2697606 A 1.6612515,1.7161927 0 0 0 1.6106978,3.937742 v 20.30715 A 45.974424,47.494899 0 0 1 16.460185,21.210464 135.21472,139.68656 0 0 1 21.798515,2.2238104 Z"
     fill="url(#a)"
     id="path941"
     style="fill:url(#a);stroke-width:1.11231" />
  <path
     d="M 26.981444,0.80043314 C 25.668202,-0.41265958 24.070424,0.07461249 22.494533,1.5172093 22.261433,1.732016 22.028332,1.969434 21.796326,2.2238104 a 27.796962,28.716268 0 0 0 -5.966497,12.5865436 11.138483,11.506857 0 0 1 0.693829,2.059884 c 0.03939,0.158279 0.07551,0.307512 0.109437,0.434136 0.06785,0.299598 0.109437,0.494055 0.109437,0.494055 0,0 -0.02407,-0.09384 -0.123664,-0.391174 l -0.06456,-0.192196 c -0.01095,-0.03052 -0.02517,-0.0667 -0.04159,-0.106273 -0.1751,-0.421699 -0.656622,-1.311452 -0.875496,-1.695842 -0.182759,0.557366 -0.344725,1.078556 -0.479333,1.55 a 13.275785,13.714844 0 0 1 0.993687,3.165572 c 0,0 -0.03283,-0.130014 -0.187137,-0.582239 a 20.833495,21.522504 0 0 0 -0.984932,-1.930999 4.417966,4.5640777 0 0 0 -0.288913,1.949088 6.5760609,6.7935455 0 0 1 0.539524,1.563568 c 0.365518,1.45051 0.619412,3.217578 0.619412,3.217578 0,0 0.0087,0.113056 0.02188,0.297338 a 28.612267,29.558537 0 0 0 0.07113,3.62345 12.434216,12.845443 0 0 0 0.639112,3.504741 L 16.77864,31.657985 A 15.166855,15.668455 0 0 1 16.255532,26.425746 38.597286,39.873782 0 0 1 18.376418,15.472864 C 20.576105,9.4718419 23.629394,4.6556488 26.420033,2.3583473 23.874532,4.7325269 20.429459,12.420347 19.39747,15.267101 a 49.964493,51.616927 0 0 0 -2.466707,9.044494 6.7971234,7.021919 0 0 1 3.593907,-3.848432 c 0,0 1.349356,-1.719584 2.926341,-4.175164 a 28.679023,29.627501 0 0 0 -3.014985,0.828702 c -0.766059,0.332385 -0.972894,0.445441 -0.972894,0.445441 a 26.19809,27.064518 0 0 1 4.612764,-2.269038 C 27.004427,10.527786 30.195605,3.7613744 26.982539,0.79478033"
     fill="#003b57"
     id="path943"
     style="stroke-width:1.11231" />
</svg>
