<?xml version="1.0" encoding="UTF-8" standalone="no"?>
<svg
   id="Layer_1"
   data-name="Layer 1"
   viewBox="0 0 110.08 132.88001"
   version="1.1"
   sodipodi:docname="University.svg"
   inkscape:version="1.2.2 (732a01da63, 2022-12-09)"
   width="110.08"
   height="132.88"
   xmlns:inkscape="http://www.inkscape.org/namespaces/inkscape"
   xmlns:sodipodi="http://sodipodi.sourceforge.net/DTD/sodipodi-0.dtd"
   xmlns="http://www.w3.org/2000/svg"
   xmlns:svg="http://www.w3.org/2000/svg"
   xmlns:rdf="http://www.w3.org/1999/02/22-rdf-syntax-ns#"
   xmlns:cc="http://creativecommons.org/ns#"
   xmlns:dc="http://purl.org/dc/elements/1.1/">
  <sodipodi:namedview
     id="namedview2021"
     pagecolor="#000000"
     bordercolor="#cccccc"
     borderopacity="1"
     inkscape:showpageshadow="0"
     inkscape:pageopacity="1"
     inkscape:pagecheckerboard="0"
     inkscape:deskcolor="#d1d1d1"
     showgrid="false"
     inkscape:zoom="6.6243491"
     inkscape:cx="51.552235"
     inkscape:cy="61.515478"
     inkscape:window-width="1920"
     inkscape:window-height="1001"
     inkscape:window-x="-9"
     inkscape:window-y="-9"
     inkscape:window-maximized="1"
     inkscape:current-layer="Layer_1" />
  <defs
     id="defs2014">
    <style
       id="style2012">.cls-1{fill-rule:evenodd;}</style>
  </defs>
  <title
     id="title2016">college-university</title>
  <path
     class="cls-1"
     d="m 52.822039,36.556708 a 1.67,1.67 0 1 1 3.34,0 v 6.5 h 4.79 a 1.68,1.68 0 0 1 0,3.35 h -6.48 a 1.67,1.67 0 0 1 -1.67,-1.67 v -8.18 z m 4.08,-32.5000004 V 20.796708 l 26.12,15 c 2.44,1.58 2.14,0.89 2.14,3.76 v 14.15 h 15.000001 a 6.41,6.41 0 0 1 6.39,6.35 V 123.9067 H 71.162039 V 81.426708 c 0,-8.34 -4.19,-13.72 -9.56,-16.1 a 16.3,16.3 0 0 0 -13.18,0 c -5.37,2.38 -9.56,7.75 -9.56,16.1 V 123.9367 H 3.4720393 V 60.056708 a 6.4,6.4 0 0 1 6.39,-6.38 H 24.862039 v -14.25 c 0,-2.82 -0.18,-2.12 2.28,-3.66 l 26.88,-15 V 4.0567076 a 2,2 0 0 1 -0.41,-1.14 1.84,1.84 0 1 1 3.29,1.14 z m 1.39,0.71 c 9.65,-6.71 10.37,6.4900004 19.84,-1.71 V 16.456708 c -9,8.12 -11,-5 -19.84,1.67 V 4.7267076 Z m 0.92,48.6500004 a 11.38,11.38 0 1 0 -9,-0.25 11.39,11.39 0 0 0 9,0.25 z m 7.67,70.559992 h -23.74 V 81.426708 c 0,-6.4 3.07,-10.46 7,-12.21 a 12.22,12.22 0 0 1 9.74,0 c 3.93,1.75 7,5.81 7,12.21 V 123.9367 Z m 12,-15.11 h 7.08 v 6.19 h -7.09 v -6.24 z m 11.47,-19.619992 h 7.12 v -6.19 h -7.12 v 6.24 z m 0,-12.91 h 7.12 v -6.28 h -7.12 v 6.24 z m -11.48,12.91 h 7.08 v -6.19 h -7.08 v 6.24 z m 0,-12.91 h 7.08 v -6.28 h -7.08 v 6.24 z m 11.48,19.58 h 7.12 v 6.239992 h -7.12 z m 0,12.909992 h 7.12 v 6.23 h -7.12 v -6.24 z m -11.48,-12.909992 h 7.08 v 6.239992 h -7.08 z m -66.27,12.909992 h 7.07 v 6.23 h -7.07 v -6.24 z m 11.47,-19.579992 h 7.08 v -6.19 h -7.08 v 6.24 z m 0,-12.91 h 7.08 v -6.28 h -7.08 v 6.24 z m -11.47,12.91 h 7.07 v -6.19 h -7.07 v 6.24 z m 0,-12.91 h 7.07 v -6.28 h -7.07 v 6.24 z m 11.47,19.58 h 7.08 v 6.239992 h -7.08 z m 0,12.909992 h 7.08 v 6.23 h -7.08 v -6.24 z m -11.47,-12.909992 h 7.07 v 6.239992 h -7.07 z"
     id="path2018"
     style="fill:#ffffff;fill-opacity:1;stroke-width:2;stroke-dasharray:none;stroke:#000000;stroke-opacity:1;stroke-linecap:round" />
  <metadata
     id="metadata2515">
    <rdf:RDF>
      <cc:Work
         rdf:about="">
        <dc:title>college-university</dc:title>
      </cc:Work>
    </rdf:RDF>
  </metadata>
</svg>
