<?xml version="1.0" encoding="UTF-8" standalone="no"?>
<svg
   version="1.1"
   id="Layer_1"
   x="0px"
   y="0px"
   viewBox="0 0 137.74 122.89"
   style="enable-background:new 0 0 137.74 122.89"
   xml:space="preserve"
   sodipodi:docname="Xamarin.svg"
   inkscape:version="1.2.2 (732a01da63, 2022-12-09)"
   xmlns:inkscape="http://www.inkscape.org/namespaces/inkscape"
   xmlns:sodipodi="http://sodipodi.sourceforge.net/DTD/sodipodi-0.dtd"
   xmlns="http://www.w3.org/2000/svg"
   xmlns:svg="http://www.w3.org/2000/svg"><defs
     id="defs22" /><sodipodi:namedview
     id="namedview20"
     pagecolor="#ffffff"
     bordercolor="#cccccc"
     borderopacity="1"
     inkscape:showpageshadow="0"
     inkscape:pageopacity="1"
     inkscape:pagecheckerboard="0"
     inkscape:deskcolor="#d1d1d1"
     showgrid="false"
     inkscape:zoom="6.6238099"
     inkscape:cx="68.91804"
     inkscape:cy="61.520485"
     inkscape:window-width="1920"
     inkscape:window-height="1001"
     inkscape:window-x="-9"
     inkscape:window-y="-9"
     inkscape:window-maximized="1"
     inkscape:current-layer="Layer_1" /><style
     type="text/css"
     id="style13">.st0{fill-rule:evenodd;clip-rule:evenodd;fill:#3498DB;}</style><rect
     style="fill:#ffffff;stroke:none;stroke-width:4;stroke-linecap:round;stroke-linejoin:round"
     id="rect303"
     width="76.542053"
     height="78.504669"
     x="33.062542"
     y="21.588783" /><g
     id="g17"><path
       class="st0"
       d="M39.74,0c-3.72,0.01-7.36,2.13-9.23,5.35L1.38,56.09c-1.84,3.24-1.84,7.47,0,10.71l29.13,50.73 c1.87,3.23,5.51,5.35,9.23,5.35h58.25c3.72-0.01,7.36-2.13,9.23-5.35l29.13-50.73c1.84-3.24,1.84-7.47,0-10.71L107.23,5.35 c-1.87-3.23-5.51-5.35-9.23-5.35H39.74L39.74,0z M40.27,29.68c0.08-0.01,0.16-0.01,0.24,0h10.05c0.45,0.01,0.88,0.27,1.1,0.65 l17.04,30.46c0.09,0.15,0.14,0.32,0.16,0.49c0.02-0.17,0.08-0.34,0.16-0.49l17-30.46c0.23-0.4,0.68-0.66,1.14-0.65h10.05 c0.89,0.01,1.56,1.13,1.14,1.92L81.72,61.44l16.64,29.8c0.46,0.79-0.23,1.97-1.14,1.96H87.17c-0.47,0-0.92-0.28-1.14-0.69 l-17-30.46c-0.09-0.15-0.14-0.32-0.16-0.49c-0.02,0.17-0.08,0.34-0.16,0.49L51.66,92.51c-0.21,0.4-0.65,0.68-1.1,0.69H40.52 c-0.91,0.01-1.6-1.17-1.14-1.96l16.64-29.8L39.38,31.6C38.98,30.88,39.46,29.83,40.27,29.68L40.27,29.68L40.27,29.68z"
       id="path15" /></g></svg>
